<?xml version="1.0" encoding="utf-8"?>
<!-- Generator: Adobe Illustrator 15.0.0, SVG Export Plug-In . SVG Version: 6.00 Build 0)  -->
<!DOCTYPE svg PUBLIC "-//W3C//DTD SVG 1.1//EN" "http://www.w3.org/Graphics/SVG/1.1/DTD/svg11.dtd">
<svg version="1.1" id="Ebene_1" xmlns="http://www.w3.org/2000/svg" xmlns:xlink="http://www.w3.org/1999/xlink" x="0px" y="0px"
	 width="24px" height="24px" viewBox="0 0 24 24" enable-background="new 0 0 24 24" xml:space="preserve">
<polygon fill-rule="evenodd" clip-rule="evenodd" fill="#E4E4E4" points="21,10.999 14.42,10.999 19.073,6.345 17.655,4.928 
	13.002,9.581 13.002,3 10.997,3 10.997,9.58 6.345,4.928 4.927,6.345 9.58,10.999 3,10.999 3,13.002 9.58,13.002 4.927,17.656 
	6.345,19.073 10.997,14.421 10.997,21 13.002,21 13.002,14.42 17.655,19.073 19.073,17.656 14.42,13.002 21,13.002 "/>
<g opacity="0.1">
	<path d="M13.002,3v6.581l4.653-4.653l1.418,1.417l-4.653,4.654H21v2.003h-6.58l4.653,4.654l-1.418,1.417l-4.653-4.653V21h-2.005
		v-6.579l-4.652,4.652l-1.418-1.417l4.653-4.654H3v-2.003h6.58L4.927,6.345l1.418-1.417l4.652,4.652V3H13.002 M14.002,2h-1h-2.005
		h-1v1v4.166L7.052,4.221L6.345,3.514L5.638,4.22L4.22,5.637L3.512,6.344L4.22,7.052l2.946,2.947H3H2v1v2.003v1h1h4.166L4.22,16.949
		l-0.708,0.707l0.708,0.707l1.418,1.417l0.707,0.707l0.707-0.707l2.945-2.945V21v1h1h2.005h1v-1v-4.166l2.946,2.946l0.707,0.707
		l0.707-0.707l1.418-1.417l0.707-0.707l-0.707-0.707l-2.946-2.947H21h1v-1v-2.003v-1h-1h-4.166l2.946-2.947l0.707-0.708L19.78,5.637
		L18.362,4.22l-0.707-0.707l-0.707,0.707l-2.946,2.946V3V2L14.002,2z"/>
</g>
</svg>
