<?xml version="1.0" encoding="utf-8"?>
<!-- Generator: Adobe Illustrator 15.0.0, SVG Export Plug-In . SVG Version: 6.00 Build 0)  -->
<!DOCTYPE svg PUBLIC "-//W3C//DTD SVG 1.1//EN" "http://www.w3.org/Graphics/SVG/1.1/DTD/svg11.dtd">
<svg version="1.1" id="Ebene_1" xmlns="http://www.w3.org/2000/svg" xmlns:xlink="http://www.w3.org/1999/xlink" x="0px" y="0px"
	 width="24px" height="24px" viewBox="0 0 24 24" enable-background="new 0 0 24 24" xml:space="preserve">
<g>
	<g>
		<path fill="#DFDFDF" d="M-346.25,103.518l2.588-2.588c-0.002-0.053-0.004-0.104-0.004-0.156c0-2.025,1.641-3.666,3.666-3.666
			c0.053,0,0.104,0.002,0.156,0.004l1.292-1.293c-0.44-0.07-0.896-0.109-1.367-0.109c-5.495,0-8.97,5.09-8.97,5.09
			S-347.939,102.189-346.25,103.518z"/>
		<path fill="#DFDFDF" d="M-336.04,96.592l3.021-3.02l-1.144-1.145l-14,14.002l1.143,1.143l2.769-2.77
			c1.239,0.635,2.696,1.088,4.333,1.088c5.494,0,8.807-5.092,8.807-5.092S-332.907,98.049-336.04,96.592z M-340,104.438
			c-1.068,0-2.029-0.457-2.7-1.188l1.669-1.668c0.284,0.275,0.672,0.445,1.098,0.445c0.875,0,1.583-0.711,1.583-1.586
			c0-0.426-0.168-0.812-0.441-1.098l1.27-1.271c0.73,0.67,1.188,1.631,1.188,2.699C-336.334,102.797-337.977,104.438-340,104.438z"
			/>
	</g>
</g>
<g opacity="0.1">
	<g>
		<g>
			<path d="M-339.91,95.709c0.473,0,0.926,0.04,1.367,0.109l-1.292,1.293c-0.052-0.002-0.103-0.004-0.156-0.004
				c-2.025,0-3.666,1.641-3.666,3.666c0,0.053,0.002,0.104,0.004,0.156l-2.588,2.588c-1.689-1.328-2.639-2.718-2.639-2.718
				S-345.405,95.709-339.91,95.709 M-339.91,94.709c-5.955,0-9.642,5.301-9.796,5.527l-0.385,0.564l0.385,0.562
				c0.042,0.062,1.058,1.533,2.847,2.939l0.698,0.549l0.627-0.628l2.588-2.588l0.309-0.31l-0.016-0.436l-0.004-0.119
				c0-1.471,1.196-2.666,2.666-2.666l0.116,0.002l0.437,0.018l0.312-0.309l1.292-1.293l1.391-1.392l-1.942-0.304
				C-338.909,94.749-339.405,94.709-339.91,94.709L-339.91,94.709z"/>
		</g>
		<g>
			<path d="M-334.153,92.429l1.143,1.144l-3.021,3.02c3.135,1.457,4.928,4.208,4.928,4.208s-3.312,5.091-8.806,5.091
				c-1.637,0-3.093-0.453-4.333-1.088l-2.769,2.77l-1.143-1.143L-334.153,92.429 M-339.924,102.027c-0.426,0-0.814-0.17-1.098-0.443
				l-1.669,1.668c0.67,0.729,1.632,1.186,2.7,1.186c2.023,0,3.666-1.64,3.666-3.664c0-1.067-0.457-2.029-1.188-2.699l-1.271,1.271
				c0.274,0.285,0.442,0.672,0.442,1.098C-338.341,101.318-339.049,102.027-339.924,102.027 M-334.153,91.014l-0.707,0.708
				l-14.001,14.001l-0.708,0.707l0.708,0.707l1.143,1.143l0.707,0.707l0.707-0.707l2.271-2.271c1.345,0.586,2.729,0.883,4.124,0.883
				c5.967,0,9.497-5.318,9.645-5.546l0.355-0.545l-0.355-0.546c-0.069-0.105-1.523-2.307-4.11-3.903l2.072-2.071l0.707-0.707
				l-0.707-0.707l-1.144-1.144L-334.153,91.014L-334.153,91.014z M-339.924,103.027c1.41,0,2.56-1.137,2.583-2.541
				c0.01,0.095,0.016,0.189,0.016,0.287c0,1.469-1.195,2.664-2.666,2.664c-0.423,0-0.828-0.097-1.192-0.279l0.311-0.311
				C-340.574,102.966-340.253,103.027-339.924,103.027L-339.924,103.027z"/>
		</g>
	</g>
</g>
<g>
	<g>
		<path fill="#DFDFDF" d="M5.75,15.518l2.588-2.588c-0.002-0.053-0.004-0.104-0.004-0.156c0-2.025,1.641-3.666,3.666-3.666
			c0.053,0,0.104,0.002,0.156,0.004l1.292-1.293c-0.439-0.07-0.895-0.109-1.366-0.109c-5.495,0-8.97,5.09-8.97,5.09
			S4.061,14.189,5.75,15.518z"/>
		<path fill="#DFDFDF" d="M15.961,8.592l3.02-3.02l-1.143-1.145L3.837,18.43l1.143,1.143l2.769-2.77
			c1.239,0.635,2.696,1.088,4.333,1.088c5.494,0,8.807-5.092,8.807-5.092S19.094,10.049,15.961,8.592z M12,16.438
			c-1.068,0-2.029-0.457-2.7-1.188l1.669-1.668c0.284,0.275,0.672,0.445,1.098,0.445c0.875,0,1.583-0.711,1.583-1.586
			c0-0.426-0.168-0.812-0.441-1.098l1.27-1.271c0.73,0.67,1.188,1.631,1.188,2.699C15.666,14.797,14.023,16.438,12,16.438z"/>
	</g>
</g>
<g opacity="0.1">
	<g>
		<g>
			<path d="M12.09,7.709c0.473,0,0.926,0.04,1.367,0.109l-1.292,1.293c-0.052-0.002-0.103-0.004-0.156-0.004
				c-2.025,0-3.666,1.641-3.666,3.666c0,0.053,0.002,0.104,0.004,0.156l-2.588,2.588C4.07,14.189,3.12,12.8,3.12,12.8
				S6.595,7.709,12.09,7.709 M12.09,6.709c-5.955,0-9.642,5.301-9.796,5.527l-0.385,0.564l0.385,0.562
				c0.042,0.062,1.058,1.533,2.847,2.939l0.698,0.549l0.627-0.628l2.588-2.588l0.309-0.31l-0.016-0.436l-0.004-0.119
				c0-1.471,1.196-2.666,2.666-2.666l0.116,0.002l0.437,0.018l0.312-0.309l1.292-1.293l1.391-1.392l-1.942-0.304
				C13.091,6.749,12.595,6.709,12.09,6.709L12.09,6.709z"/>
		</g>
		<g>
			<path d="M17.847,4.429l1.143,1.144l-3.021,3.02c3.135,1.457,4.928,4.208,4.928,4.208s-3.312,5.091-8.806,5.091
				c-1.637,0-3.093-0.453-4.333-1.088l-2.769,2.77L3.844,18.43L17.847,4.429 M12.076,14.027c-0.426,0-0.814-0.17-1.098-0.443
				l-1.669,1.668c0.67,0.729,1.632,1.186,2.7,1.186c2.023,0,3.666-1.64,3.666-3.664c0-1.067-0.457-2.029-1.188-2.699l-1.271,1.271
				c0.274,0.285,0.442,0.672,0.442,1.098C13.659,13.318,12.951,14.027,12.076,14.027 M17.847,3.014L17.14,3.722L3.138,17.723
				L2.43,18.43l0.708,0.707l1.143,1.143l0.707,0.707l0.707-0.707l2.271-2.271c1.345,0.586,2.729,0.883,4.124,0.883
				c5.967,0,9.497-5.318,9.645-5.546l0.355-0.545l-0.355-0.546c-0.069-0.105-1.523-2.307-4.11-3.903l2.072-2.071l0.707-0.707
				l-0.707-0.707l-1.144-1.144L17.847,3.014L17.847,3.014z M12.076,15.027c1.41,0,2.56-1.137,2.583-2.541
				c0.01,0.095,0.016,0.189,0.016,0.287c0,1.469-1.195,2.664-2.666,2.664c-0.423,0-0.828-0.097-1.192-0.279l0.311-0.311
				C11.426,14.966,11.747,15.027,12.076,15.027L12.076,15.027z"/>
		</g>
	</g>
</g>
</svg>
