<?xml version="1.0" encoding="utf-8"?>
<!-- Generator: Adobe Illustrator 15.0.0, SVG Export Plug-In . SVG Version: 6.00 Build 0)  -->
<!DOCTYPE svg PUBLIC "-//W3C//DTD SVG 1.1//EN" "http://www.w3.org/Graphics/SVG/1.1/DTD/svg11.dtd">
<svg version="1.1" id="Ebene_1" xmlns="http://www.w3.org/2000/svg" xmlns:xlink="http://www.w3.org/1999/xlink" x="0px" y="0px"
	 width="24px" height="24px" viewBox="0 0 24 24" enable-background="new 0 0 24 24" xml:space="preserve">
<path fill-rule="evenodd" clip-rule="evenodd" fill="#E4E4E4" d="M5.111,14.711l-1.405-1.405c0.316-0.433,1.311-1.31,2.091-2.091
	c3.124-3.124,8.181-3.133,11.306-0.009l2.475-2.475v7.072l-7.071-0.001l3.182-3.182c-2.344-2.344-6.142-2.344-8.485,0
	C6.433,13.389,5.476,14.369,5.111,14.711z"/>
<g opacity="0.1">
	<path d="M19.577,8.731v7.072l-7.071-0.001l3.182-3.182c-1.172-1.172-2.707-1.758-4.243-1.758c-1.535,0-3.071,0.586-4.243,1.758
		c-0.77,0.769-1.727,1.749-2.091,2.091l-1.405-1.405c0.316-0.433,1.311-1.31,2.091-2.091C7.361,9.65,9.41,8.867,11.458,8.867
		c2.042,0,4.083,0.779,5.644,2.338L19.577,8.731 M20.577,6.317L18.87,8.024L17.063,9.83c-1.587-1.272-3.543-1.963-5.605-1.963
		c-2.404,0-4.666,0.938-6.369,2.641c-0.266,0.266-0.557,0.543-0.837,0.81c-0.587,0.56-1.095,1.043-1.354,1.398l-0.506,0.692
		l0.606,0.605l1.405,1.405l0.685,0.685l0.706-0.662c0.238-0.224,0.725-0.715,1.25-1.245c0.288-0.29,0.587-0.593,0.863-0.867
		c0.945-0.946,2.201-1.466,3.536-1.466c0.996,0,1.947,0.289,2.758,0.828l-2.404,2.404l-1.707,1.707h2.414l7.071,0.001h1v-1V8.731
		V6.317L20.577,6.317z"/>
</g>
</svg>
