<?xml version="1.0" encoding="utf-8"?>
<!-- Generator: Adobe Illustrator 15.0.0, SVG Export Plug-In . SVG Version: 6.00 Build 0)  -->
<!DOCTYPE svg PUBLIC "-//W3C//DTD SVG 1.1//EN" "http://www.w3.org/Graphics/SVG/1.1/DTD/svg11.dtd">
<svg version="1.1" id="Ebene_1" xmlns="http://www.w3.org/2000/svg" xmlns:xlink="http://www.w3.org/1999/xlink" x="0px" y="0px"
	 width="24px" height="24px" viewBox="0 0 24 24" enable-background="new 0 0 24 24" xml:space="preserve">
<path fill-rule="evenodd" clip-rule="evenodd" fill="#E4E4E4" d="M16.081,12.62c-2.344-2.344-6.142-2.344-8.485,0l3.182,3.182
	l-7.071,0.001V8.731l2.475,2.475c3.125-3.124,8.182-3.115,11.306,0.009c0.78,0.781,1.774,1.658,2.091,2.091l-1.405,1.405
	C17.808,14.369,16.851,13.389,16.081,12.62z"/>
<g opacity="0.1">
	<path d="M3.706,8.731l2.475,2.475c1.56-1.56,3.602-2.338,5.644-2.338c2.048,0,4.097,0.783,5.662,2.348
		c0.78,0.781,1.774,1.658,2.091,2.091l-1.405,1.405c-0.364-0.342-1.321-1.322-2.091-2.091c-1.172-1.172-2.707-1.758-4.243-1.758
		s-3.071,0.586-4.243,1.758l3.182,3.182l-7.071,0.001V8.731 M2.706,6.317v2.414v7.072v1h1l7.071-0.001h2.414l-1.707-1.707
		L9.08,12.69c0.811-0.539,1.763-0.828,2.758-0.828c1.335,0,2.591,0.52,3.536,1.465c0.276,0.275,0.575,0.578,0.863,0.868
		c0.525,0.53,1.012,1.021,1.25,1.245l0.707,0.662l0.685-0.685l1.405-1.405l0.605-0.605l-0.505-0.692
		c-0.26-0.354-0.767-0.838-1.354-1.398c-0.28-0.266-0.571-0.543-0.837-0.81c-1.703-1.703-3.965-2.641-6.369-2.641
		c-2.062,0-4.019,0.691-5.605,1.963L4.413,8.024L2.706,6.317L2.706,6.317z"/>
</g>
</svg>
