<?xml version="1.0" encoding="utf-8"?>
<!-- Generator: Adobe Illustrator 15.0.0, SVG Export Plug-In . SVG Version: 6.00 Build 0)  -->
<!DOCTYPE svg PUBLIC "-//W3C//DTD SVG 1.1//EN" "http://www.w3.org/Graphics/SVG/1.1/DTD/svg11.dtd">
<svg version="1.1" id="Ebene_1" xmlns="http://www.w3.org/2000/svg" xmlns:xlink="http://www.w3.org/1999/xlink" x="0px" y="0px"
	 width="841.89px" height="595.28px" viewBox="0 0 841.89 595.28" enable-background="new 0 0 841.89 595.28" xml:space="preserve">

<g id="New">
<path d="M483.021,216.496l-8.699-0.016l6.181-6.158c0.485-0.484,0.487-1.27,0.003-1.755
	c-0.483-0.484-1.269-0.487-1.755-0.003l-6.055,6.032l-0.016-8.44c-0.002-0.685-0.556-1.239-1.24-1.239c-0.001,0-0.002,0-0.002,0
	c-0.686,0.002-1.24,0.559-1.238,1.244l0.016,8.521l-6.087-6.063c-0.486-0.484-1.271-0.482-1.755,0.002
	c-0.483,0.486-0.482,1.271,0.003,1.756l6.117,6.093l-3.29-0.006l-5.35,0.034c-0.686,0.004-1.238,0.562-1.233,1.248
	c0.005,0.683,0.56,1.232,1.24,1.232c0.003,0,0.006,0,0.009,0l5.34-0.033l3.118,0.006l-2.198,2.189l-3.76,3.807
	c-0.481,0.487-0.477,1.272,0.012,1.754c0.241,0.239,0.557,0.358,0.871,0.358c0.32,0,0.64-0.123,0.883-0.369l3.752-3.8l2.34-2.33
	l0.006,3.397l-0.033,5.351c-0.005,0.686,0.547,1.244,1.232,1.249c0.002,0,0.005,0,0.008,0c0.682,0,1.235-0.551,1.24-1.233
	l0.033-5.361l-0.006-3.295l2.277,2.269l3.76,3.807c0.242,0.247,0.562,0.369,0.882,0.369c0.314,0,0.63-0.119,0.872-0.358
	c0.487-0.481,0.492-1.266,0.012-1.754l-3.768-3.814l-2.231-2.224l8.505,0.016c0.001,0,0.001,0,0.002,0
	c0.685,0,1.239-0.554,1.24-1.238C484.261,217.054,483.707,216.497,483.021,216.496z"/>
</g>
<g id="Open">
<path fill="#FFFFFF" d="M247.809,212.147c-0.481-0.488-1.267-0.493-1.755-0.013l-2.549,2.514l-3.18,3.168l-2.877,2.913l-2.884-2.92
	l-3.177-3.166l-2.544-2.509c-0.487-0.48-1.273-0.476-1.754,0.013c-0.481,0.487-0.476,1.272,0.012,1.754l2.54,2.505l3.166,3.153
	l3.76,3.808c0.001,0.002,0.004,0.003,0.006,0.005c0.002,0.001,0.003,0.004,0.005,0.005c0.031,0.031,0.066,0.055,0.1,0.081
	c0.03,0.024,0.059,0.052,0.09,0.073c0.04,0.026,0.083,0.045,0.124,0.065c0.031,0.016,0.06,0.035,0.091,0.048
	c0.048,0.02,0.1,0.031,0.15,0.045c0.027,0.007,0.053,0.018,0.08,0.023c0.078,0.015,0.158,0.022,0.237,0.022
	c0.08,0,0.159-0.008,0.237-0.022c0.022-0.004,0.044-0.015,0.067-0.02c0.055-0.014,0.11-0.028,0.163-0.049
	c0.027-0.012,0.052-0.028,0.078-0.041c0.046-0.023,0.093-0.044,0.137-0.073c0.03-0.02,0.057-0.046,0.085-0.068
	c0.035-0.028,0.071-0.053,0.104-0.085c0.002-0.001,0.003-0.004,0.005-0.005c0.002-0.002,0.004-0.003,0.006-0.005l3.752-3.801
	l3.168-3.156l2.544-2.509C248.284,213.42,248.289,212.635,247.809,212.147z"/>
</g>
<g id="Save">
<path d="M292.107,219.069l-3.166-3.152l-3.759-3.808c-0.002-0.002-0.004-0.003-0.007-0.006
	c-0.001-0.001-0.002-0.003-0.004-0.005c-0.027-0.026-0.057-0.045-0.086-0.069c-0.034-0.028-0.067-0.06-0.104-0.084
	c-0.034-0.022-0.07-0.038-0.105-0.056c-0.037-0.02-0.072-0.042-0.109-0.058c-0.038-0.016-0.078-0.023-0.117-0.035
	c-0.038-0.011-0.074-0.025-0.113-0.033c-0.039-0.007-0.08-0.008-0.12-0.012c-0.039-0.004-0.078-0.011-0.117-0.011
	s-0.078,0.007-0.117,0.011c-0.04,0.004-0.08,0.005-0.12,0.012c-0.039,0.008-0.076,0.022-0.114,0.033
	c-0.039,0.012-0.078,0.021-0.116,0.035c-0.038,0.016-0.074,0.038-0.11,0.058c-0.036,0.019-0.072,0.034-0.105,0.056
	c-0.037,0.024-0.069,0.056-0.104,0.084c-0.028,0.023-0.059,0.043-0.086,0.069c-0.002,0.002-0.003,0.004-0.005,0.005
	c-0.001,0.003-0.004,0.004-0.006,0.006l-3.753,3.801l-3.168,3.155l-2.544,2.509c-0.488,0.481-0.493,1.267-0.013,1.755
	c0.243,0.247,0.563,0.37,0.883,0.37c0.314,0,0.629-0.119,0.872-0.357l2.549-2.514l3.18-3.168l2.877-2.914l2.884,2.922l3.177,3.165
	l2.544,2.509c0.242,0.238,0.557,0.357,0.871,0.357c0.32,0,0.641-0.123,0.883-0.37c0.481-0.488,0.476-1.273-0.012-1.755
	L292.107,219.069z"/>
</g>
<g id="SaveAs">
	<path d="M335.081,219.541l-3.166-3.152l-3.76-3.808c-0.002-0.002-0.004-0.003-0.006-0.006
		c-0.002-0.001-0.003-0.003-0.005-0.005c-0.026-0.027-0.058-0.046-0.087-0.07c-0.033-0.027-0.066-0.059-0.103-0.083
		c-0.034-0.022-0.072-0.038-0.108-0.058c-0.035-0.019-0.07-0.04-0.106-0.056c-0.039-0.016-0.079-0.024-0.119-0.035
		c-0.036-0.011-0.073-0.025-0.11-0.033c-0.041-0.007-0.08-0.008-0.121-0.012c-0.039-0.004-0.077-0.011-0.117-0.011
		c-0.039,0-0.077,0.007-0.116,0.011c-0.04,0.004-0.08,0.005-0.12,0.012c-0.038,0.008-0.074,0.022-0.113,0.033
		c-0.039,0.012-0.078,0.02-0.115,0.035c-0.039,0.016-0.074,0.038-0.109,0.058c-0.036,0.018-0.072,0.033-0.107,0.056
		c-0.036,0.024-0.068,0.056-0.103,0.083c-0.028,0.024-0.06,0.044-0.087,0.07c-0.002,0.002-0.003,0.004-0.004,0.005
		c-0.002,0.003-0.005,0.004-0.007,0.006l-3.753,3.801l-3.168,3.156l-2.544,2.509c-0.488,0.48-0.493,1.266-0.013,1.754
		c0.242,0.247,0.562,0.37,0.883,0.37c0.315,0,0.63-0.119,0.872-0.358l2.548-2.513l3.18-3.168l2.877-2.914l2.885,2.922l3.177,3.165
		l2.546,2.509c0.241,0.238,0.556,0.357,0.87,0.357c0.321,0,0.641-0.123,0.884-0.37c0.48-0.488,0.475-1.273-0.013-1.755
		L335.081,219.541z"/>
	<path d="M347.519,205.823l-2.893-0.019l-2.122,0.004l0.01-4.98c0.002-0.686-0.553-1.242-1.238-1.243h-0.002
		c-0.685,0-1.24,0.554-1.241,1.238l-0.009,4.989l-4.991,0.01c-0.685,0.002-1.239,0.558-1.237,1.243
		c0.001,0.684,0.556,1.238,1.24,1.238c0.001,0,0.002,0,0.002,0l4.981-0.01l-0.005,2.133l0.019,2.882
		c0.005,0.683,0.56,1.233,1.24,1.233c0.003,0,0.005,0,0.009,0c0.684-0.005,1.236-0.564,1.232-1.249l-0.019-2.872l0.004-2.131
		l2.121-0.005l2.882,0.019c0.004,0,0.006,0,0.009,0c0.681,0,1.236-0.551,1.241-1.232
		C348.756,206.386,348.204,205.826,347.519,205.823z"/>
</g>
<g id="Undo">
<path fill="#FFFFFF" d="M388.607,216.497H370.93l1.666-1.644l3.16-3.174c0.483-0.485,0.481-1.27-0.004-1.754
	c-0.485-0.483-1.271-0.482-1.754,0.003l-3.153,3.166l-3.807,3.76c-0.01,0.01-0.017,0.02-0.025,0.029
	c-0.039,0.041-0.076,0.086-0.109,0.134c-0.014,0.018-0.026,0.035-0.038,0.053c-0.035,0.056-0.067,0.114-0.094,0.177
	c-0.004,0.006-0.008,0.012-0.01,0.019l0,0c-0.028,0.067-0.048,0.138-0.062,0.206c-0.005,0.021-0.008,0.043-0.011,0.064
	c-0.009,0.052-0.015,0.104-0.016,0.154c-0.002,0.023-0.002,0.046-0.002,0.068c0.002,0.059,0.006,0.115,0.016,0.173
	c0.002,0.015,0.002,0.029,0.005,0.043c0.015,0.069,0.034,0.138,0.06,0.204c0.009,0.02,0.017,0.038,0.026,0.059
	c0.021,0.048,0.045,0.095,0.073,0.141c0.012,0.021,0.024,0.04,0.038,0.061c0.035,0.052,0.075,0.1,0.118,0.146
	c0.008,0.008,0.012,0.017,0.02,0.023c0.001,0.002,0.004,0.003,0.006,0.005c0.001,0.002,0.003,0.004,0.006,0.007l3.8,3.753
	l3.16,3.172c0.242,0.243,0.561,0.365,0.879,0.365c0.316,0,0.633-0.121,0.875-0.362c0.485-0.482,0.487-1.269,0.004-1.754l-3.168-3.18
	l-1.658-1.637h16.436v4.343c0,0.685,0.556,1.24,1.241,1.24c0.685,0,1.24-0.556,1.24-1.24v-5.583
	C389.847,217.053,389.292,216.497,388.607,216.497z"/>
</g>
<g id="Redo">
<path d="M436.466,278.245c-0.002-0.051-0.008-0.103-0.017-0.154c-0.003-0.021-0.006-0.043-0.011-0.064
	c-0.015-0.068-0.034-0.139-0.062-0.206l0,0c-0.003-0.007-0.008-0.013-0.01-0.019c-0.027-0.062-0.06-0.121-0.095-0.177
	c-0.012-0.018-0.024-0.035-0.038-0.053c-0.033-0.048-0.07-0.093-0.109-0.134c-0.009-0.01-0.015-0.02-0.024-0.029l-3.8-3.752
	l-3.161-3.174c-0.483-0.485-1.269-0.486-1.754-0.003c-0.485,0.484-0.486,1.269-0.004,1.754l3.168,3.181l1.657,1.637h-17.675
	c-0.686,0-1.241,0.556-1.241,1.24v5.583c0,0.685,0.556,1.24,1.241,1.24s1.241-0.556,1.241-1.24v-4.343h16.434l-1.664,1.644
	l-3.161,3.173c-0.482,0.485-0.481,1.271,0.004,1.754c0.242,0.241,0.559,0.362,0.875,0.362c0.318,0,0.637-0.122,0.879-0.365
	l3.153-3.166l3.808-3.759c0.002-0.003,0.004-0.005,0.005-0.007c0.003-0.002,0.005-0.003,0.006-0.005
	c0.008-0.007,0.012-0.016,0.02-0.023c0.044-0.047,0.083-0.095,0.118-0.146c0.014-0.021,0.026-0.04,0.038-0.061
	c0.028-0.046,0.053-0.093,0.074-0.141c0.008-0.021,0.018-0.039,0.025-0.059c0.025-0.066,0.046-0.135,0.06-0.204
	c0.003-0.014,0.003-0.028,0.006-0.043c0.009-0.058,0.014-0.114,0.015-0.173C436.467,278.291,436.467,278.269,436.466,278.245z"/>
</g>
<g id="User">
	<path fill="#070707" d="M30.925,30.529H1.076l-0.001-0.956c-0.001-1.021,0.055-4.455,0.844-5.728
		c2.457-3.99,5.327-5.975,8.581-5.975c0.216,0,0.378-0.04,0.435-0.108c0.052-0.062,0.09-0.202,0.093-0.393
		c-2.402-1.668-3.875-4.479-3.875-7.451c0-3.422,1.979-6.601,5.042-8.098c0.841-0.475,1.708-0.757,2.531-0.816
		c0.414-0.067,0.789-0.104,1.142-0.116c0.739,0.009,0.916,0.031,1.209,0.084l0.101,0.018c0.863,0.062,1.794,0.352,2.626,0.819
		c3.031,1.479,5.021,4.642,5.021,8.031c0,2.976-1.435,5.698-3.862,7.373c0.005,0.129,0.031,0.21,0.058,0.242
		c0.029,0.035,0.166,0.102,0.476,0.102c4.769,0,7.545,4.575,8.457,6.079l0.129,0.208c0.789,1.272,0.847,4.707,0.845,5.729
		L30.925,30.529z M3.005,28.615h25.99c-0.058-1.609-0.253-3.297-0.542-3.762l-0.136-0.225c-0.856-1.41-3.131-5.157-6.822-5.157
		c-1.066,0-1.648-0.432-1.948-0.794c-0.451-0.543-0.601-1.301-0.433-2.19l0.077-0.416l0.36-0.222
		c2.104-1.293,3.358-3.54,3.358-6.008c0-2.663-1.568-5.15-3.996-6.336c-0.651-0.364-1.313-0.57-1.91-0.607L16.73,2.856
		c-0.169-0.031-0.246-0.045-0.846-0.054c-0.238,0.008-0.545,0.041-0.894,0.099l-0.098,0.011c-0.548,0.033-1.156,0.236-1.81,0.603
		c-2.459,1.204-4.017,3.708-4.017,6.404c0,2.476,1.292,4.809,3.37,6.087l0.362,0.223l0.078,0.419c0.1,0.542,0.172,1.567-0.471,2.34
		c-0.303,0.364-0.879,0.798-1.906,0.798c-3.834,0-6.144,3.752-6.903,4.986l-0.051,0.082C3.257,25.319,3.062,27.007,3.005,28.615z"/>
</g>
<g id="Close"><path d="M17.5,82.5c1,1,2.4,1.6,3.8,1.6s2.7-0.5,3.8-1.6l25-25l25,25c1,1,2.4,1.6,3.8,1.6s2.7-0.5,3.8-1.6c2.1-2.1,2.1-5.5,0-7.5  l-25-25l25-25c2.1-2.1,2.1-5.5,0-7.5c-2.1-2.1-5.4-2.1-7.5,0l-25,25l-25-25c-2.1-2.1-5.4-2.1-7.5,0c-2.1,2.1-2.1,5.5,0,7.5l25,25  l-25,25C15.4,77.1,15.4,80.4,17.5,82.5z"></path>
</g>
<g id="SignUp">
	<path d="M561.808,202.808v7.235h2.482v-4.754h5.91v24.896h-5.91v-4.809h-2.482v7.29h19.555v-29.859H561.808z
		 M578.882,230.186h-6.199v-24.896h6.199V230.186z"/>
	<path d="M557.845,208.185c-0.451-0.517-1.234-0.569-1.75-0.118s-0.568,1.234-0.117,1.751l5.525,6.322h-12.23
		c-0.686,0-1.24,0.555-1.24,1.24s0.555,1.24,1.24,1.24h12.422l-5.703,6.308c-0.461,0.508-0.42,1.293,0.088,1.752
		c0.236,0.215,0.535,0.32,0.832,0.32c0.338,0,0.676-0.138,0.92-0.408l8.189-9.056L557.845,208.185z"/>
</g>
<g id="quickmenu">
	<path d="M560.792,295.034h-20.034c-0.573,0-1.037,0.465-1.037,1.037c0,0.574,0.464,1.038,1.037,1.038h20.034
		c0.573,0,1.038-0.464,1.038-1.038C561.83,295.499,561.365,295.034,560.792,295.034z"/>
	<path d="M560.792,301.684h-20.034c-0.573,0-1.037,0.465-1.037,1.037c0,0.574,0.464,1.038,1.037,1.038h20.034
		c0.573,0,1.038-0.464,1.038-1.038C561.83,302.148,561.365,301.684,560.792,301.684z"/>
	<path d="M540.758,290.492h20.034c0.573,0,1.038-0.464,1.038-1.036c0-0.574-0.465-1.038-1.038-1.038h-20.034
		c-0.573,0-1.037,0.464-1.037,1.038C539.721,290.028,540.185,290.492,540.758,290.492z"/>
</g>
<g id="exit">
	<rect x="14.535" y="144.625" width="43.85" height="43.759"/>
	<path fill="#FFFFFF" d="M40.924,169.773l-3.307-3.295l6.609-6.583c0.32-0.319,0.321-0.836,0.002-1.156
		c-0.318-0.319-0.836-0.32-1.155-0.002l-6.613,6.589l-6.614-6.589c-0.32-0.318-0.836-0.317-1.156,0.002
		c-0.318,0.32-0.317,0.837,0.002,1.156l6.609,6.583l-3.311,3.3l-3.302,3.344c-0.317,0.321-0.314,0.838,0.007,1.155
		c0.159,0.157,0.367,0.236,0.574,0.236c0.211,0,0.422-0.081,0.582-0.244l3.298-3.338l3.311-3.3l3.307,3.295l3.302,3.343
		c0.16,0.163,0.371,0.244,0.581,0.244c0.208,0,0.415-0.079,0.575-0.236c0.321-0.317,0.324-0.834,0.007-1.155L40.924,169.773z"/>
</g>
<g id="SkinCycle">
	<path d="M91.551,252.728l46.195-46.195c-0.04-0.924-0.07-1.848-0.07-2.783c0-36.135,29.295-65.428,65.431-65.428
		c0.932,0,1.856,0.031,2.78,0.07l23.075-23.075c-7.849-1.231-15.979-1.944-24.416-1.944c-98.082,0-160.104,90.87-160.104,90.87
		S61.399,229.041,91.551,252.728z"/>
	<path d="M273.794,129.123l53.917-53.917L307.315,54.81L57.398,304.727l20.396,20.396l49.424-49.424
		c22.126,11.328,48.111,19.413,77.328,19.413c98.081,0,157.219-90.869,157.219-90.869S329.742,155.123,273.794,129.123z
		M203.106,269.177c-19.069,0-36.226-8.164-48.185-21.182l29.777-29.777c5.088,4.899,11.987,7.925,19.604,7.925
		c15.621,0,28.287-12.666,28.287-28.287c0-7.617-3.026-14.517-7.925-19.604l22.684-22.683
		c13.018,11.956,21.185,29.112,21.185,48.181C268.534,239.89,239.241,269.177,203.106,269.177z"/>
</g>
</svg>
