<?xml version="1.0" encoding="utf-8"?>
<!-- Generator: Adobe Illustrator 15.0.0, SVG Export Plug-In . SVG Version: 6.00 Build 0)  -->
<!DOCTYPE svg PUBLIC "-//W3C//DTD SVG 1.1//EN" "http://www.w3.org/Graphics/SVG/1.1/DTD/svg11.dtd">
<svg version="1.1" id="Ebene_1" xmlns="http://www.w3.org/2000/svg" xmlns:xlink="http://www.w3.org/1999/xlink" x="0px" y="0px"
	 width="24px" height="24px" viewBox="0 0 24 24" enable-background="new 0 0 24 24" xml:space="preserve">
<g>
	<polygon fill="#DFDFDF" points="13.016,8.008 17,8.008 12,3.008 7,8.008 11.016,8.008 11.016,13.279 13.016,13.279 	"/>
	<polygon fill="#DFDFDF" points="18,12.988 16,12.988 16,18.988 8,18.988 8,12.988 6,12.988 6,20.988 6.984,20.988 8,20.988 
		16,20.988 17,20.988 18,20.988 	"/>
	<g opacity="0.1">
		<path d="M12,3.008l5,5h-3.984v5.271h-2V8.008H7L12,3.008 M12,1.594l-0.707,0.707l-5,5L4.586,9.008H7h3.016v4.271v1h1h2h1v-1V9.008
			H17h2.414l-1.707-1.707l-5-5L12,1.594L12,1.594z"/>
	</g>
	<g opacity="0.1">
		<path d="M18,12.988v8h-1h-1H8H6.984H6v-8h2v6h8v-6H18 M19,11.988h-1h-2h-1v1v5H9v-5v-1H8H6H5v1v8v1h1h0.984H8h8h1h1h1v-1v-8
			V11.988L19,11.988z"/>
	</g>
</g>
</svg>
