<?xml version="1.0" encoding="utf-8"?>
<!-- Generator: Adobe Illustrator 15.0.0, SVG Export Plug-In . SVG Version: 6.00 Build 0)  -->
<!DOCTYPE svg PUBLIC "-//W3C//DTD SVG 1.1//EN" "http://www.w3.org/Graphics/SVG/1.1/DTD/svg11.dtd">
<svg version="1.1" id="Ebene_1" xmlns="http://www.w3.org/2000/svg" xmlns:xlink="http://www.w3.org/1999/xlink" x="0px" y="0px"
	 width="24px" height="24px" viewBox="0 0 24 24" enable-background="new 0 0 24 24" xml:space="preserve">
<polygon fill-rule="evenodd" clip-rule="evenodd" fill="#E4E4E4" points="10.962,10.985 10.962,7 15.962,12 10.962,17 
	10.962,12.985 3.006,13.012 3.006,11.011 "/>
<polygon fill-rule="evenodd" clip-rule="evenodd" fill="#E4E4E4" points="11.009,2.996 11.009,4.996 20.023,4.996 20.023,19.004 
	11.009,19.004 11.009,21.004 22.023,21.004 22.023,20.02 22.023,19.004 22.023,4.996 22.023,3.996 22.023,2.996 "/>
<g opacity="0.1">
	<path d="M10.962,7l5,5l-5,5v-4.015l-7.956,0.027v-2l7.956-0.026V7 M9.962,4.586V7v2.988l-6.959,0.023l-0.997,0.003v0.997v2v1.003
		l1.003-0.003l6.953-0.023V17v2.414l1.707-1.707l5-5L17.376,12l-0.707-0.707l-5-5L9.962,4.586L9.962,4.586z"/>
</g>
<g opacity="0.1">
	<path d="M22.023,2.996v1v1v14.008v1.016v0.984H11.009v-2h9.015V4.996h-9.015v-2H22.023 M23.023,1.996h-1H11.009h-1v1v2v1h1h8.015
		v12.008h-8.015h-1v1v2v1h1h11.015h1v-1V20.02v-1.016V4.996v-1v-1V1.996L23.023,1.996z"/>
</g>
</svg>
