<?xml version="1.0" encoding="utf-8"?>
<!-- Generator: Adobe Illustrator 15.0.0, SVG Export Plug-In . SVG Version: 6.00 Build 0)  -->
<!DOCTYPE svg PUBLIC "-//W3C//DTD SVG 1.1//EN" "http://www.w3.org/Graphics/SVG/1.1/DTD/svg11.dtd">
<svg version="1.1" id="Ebene_1" xmlns="http://www.w3.org/2000/svg" xmlns:xlink="http://www.w3.org/1999/xlink" x="0px" y="0px"
	 width="24px" height="24px" viewBox="0 0 24 24" enable-background="new 0 0 24 24" xml:space="preserve">
<rect x="3" y="11" fill-rule="evenodd" clip-rule="evenodd" fill="#E4E4E4" width="18" height="2"/>
<rect x="3" y="5" fill-rule="evenodd" clip-rule="evenodd" fill="#E4E4E4" width="18" height="2"/>
<rect x="3" y="17" fill-rule="evenodd" clip-rule="evenodd" fill="#E4E4E4" width="18" height="2"/>
<g opacity="0.1">
	<path d="M21,11v2H3v-2H21 M22,10h-1H3H2v1v2v1h1h18h1v-1v-2V10L22,10z"/>
</g>
<g opacity="0.1">
	<path d="M21,5v2H3V5H21 M22,4h-1H3H2v1v2v1h1h18h1V7V5V4L22,4z"/>
</g>
<g opacity="0.1">
	<path d="M21,17v2H3v-2H21 M22,16h-1H3H2v1v2v1h1h18h1v-1v-2V16L22,16z"/>
</g>
</svg>
