<?xml version="1.0" encoding="utf-8"?>
<!-- Generator: Adobe Illustrator 15.0.0, SVG Export Plug-In . SVG Version: 6.00 Build 0)  -->
<!DOCTYPE svg PUBLIC "-//W3C//DTD SVG 1.1//EN" "http://www.w3.org/Graphics/SVG/1.1/DTD/svg11.dtd">
<svg version="1.1" id="Ebene_1" xmlns="http://www.w3.org/2000/svg" xmlns:xlink="http://www.w3.org/1999/xlink" x="0px" y="0px"
	 width="841.89px" height="595.28px" viewBox="0 0 841.89 595.28" enable-background="new 0 0 841.89 595.28" xml:space="preserve">
<g>
	<path fill="#676767" d="M292.774,272.825c-0.649-0.022-1.265-0.033-1.833-0.033c-1.241,0-2.477,0.067-3.673,0.2l-0.109,0.012
		l-11.898,40.428l-11.933-40.321l-0.03-0.102c0,0-1.325-0.172-2.013-0.216c-0.698-0.045-1.339-0.067-1.904-0.067
		c-0.61,0-1.273,0.022-1.971,0.067c-0.689,0.044-1.967,0.235-1.967,0.235l15.54,47.953l0.032,0.099c0,0,1.389,0.171,2.076,0.215
		c0.696,0.045,1.358,0.067,1.971,0.067c0.61,0,1.285-0.022,2.003-0.067c0.709-0.044,2.042-0.216,2.042-0.216l15.58-47.87l0.06-0.184
		l-0.19-0.031C294.022,272.905,293.422,272.848,292.774,272.825z"/>
	<path fill="#676767" d="M307.395,272.792c-1.175-0.089-2.31-0.089-3.48,0c-0.576,0.044-1.14,0.112-1.675,0.201l-0.139,0.023v48.051
		c0,0,1.18,0.183,1.782,0.227c0.607,0.045,1.204,0.067,1.773,0.067c0.613,0,1.212-0.006,1.774-0.067
		c0.696-0.076,1.781-0.224,1.781-0.224v-48.054l-0.139-0.023C308.537,272.905,307.974,272.836,307.395,272.792z"/>
	<path fill="#676767" d="M345.239,298.192c-0.982-1.048-2.181-1.976-3.562-2.755c-1.375-0.775-2.968-1.527-4.738-2.236l-3.722-1.462
		c-0.922-0.352-1.81-0.75-2.64-1.188c-0.826-0.434-1.552-0.929-2.16-1.472c-0.602-0.537-1.092-1.169-1.458-1.879
		c-0.363-0.703-0.546-1.516-0.546-2.416c0-2.193,0.738-3.859,2.193-4.95c1.468-1.103,3.604-1.662,6.345-1.662
		c1.97,0,3.757,0.178,5.312,0.528c1.559,0.353,2.949,0.752,4.131,1.19l0.15,0.055l0.061-0.147c0.754-1.819,1.25-3.689,1.474-5.559
		l0.016-0.131l-0.124-0.044c-1.459-0.531-3.167-0.98-5.077-1.336c-1.908-0.355-3.953-0.535-6.076-0.535
		c-4.978,0-8.903,1.164-11.667,3.46c-2.773,2.304-4.179,5.532-4.179,9.596c0,1.696,0.227,3.18,0.674,4.409
		c0.446,1.229,1.07,2.331,1.855,3.272c0.783,0.94,1.724,1.746,2.799,2.395c1.065,0.644,2.257,1.24,3.544,1.772l3.787,1.528
		c1.512,0.623,2.84,1.203,3.946,1.725c1.106,0.521,2.044,1.105,2.787,1.736c0.729,0.623,1.284,1.373,1.649,2.23
		c0.366,0.864,0.552,1.915,0.552,3.125c0,2.461-0.885,4.441-2.631,5.885c-1.754,1.451-4.457,2.188-8.033,2.188
		c-2.279,0-4.232-0.199-5.807-0.593c-1.581-0.396-3.118-0.862-4.568-1.39l-0.156-0.058l-0.058,0.156
		c-0.354,0.974-0.69,1.981-1,2.999c-0.312,1.023-0.516,2.041-0.604,3.023l-0.012,0.13l0.125,0.042
		c0.924,0.309,1.841,0.6,2.728,0.865c0.885,0.266,1.818,0.49,2.775,0.669c0.954,0.177,1.999,0.312,3.107,0.401
		c1.109,0.088,2.366,0.133,3.734,0.133c5.683,0,10.167-1.344,13.328-3.992c3.17-2.656,4.777-6.332,4.777-10.924
		c0-1.912-0.26-3.607-0.774-5.039C346.984,300.506,346.225,299.246,345.239,298.192z"/>
	<path fill="#676767" d="M387.111,272.792c-1.155,0-2.301,0.067-3.409,0.201l-0.147,0.018v27.256c0,2.724-0.177,5.084-0.528,7.013
		c-0.35,1.919-0.922,3.497-1.703,4.69c-0.776,1.186-1.803,2.07-3.052,2.629c-1.257,0.564-2.844,0.85-4.716,0.85
		c-1.875,0-3.473-0.285-4.751-0.85c-1.27-0.559-2.308-1.443-3.083-2.629c-0.782-1.195-1.355-2.773-1.703-4.69
		c-0.351-1.925-0.529-4.284-0.529-7.013v-27.255l-0.145-0.019c-1.021-0.133-2.146-0.201-3.343-0.201
		c-1.242,0-2.412,0.067-3.475,0.201l-0.146,0.018v28.451c0,3.188,0.304,6.085,0.902,8.609c0.601,2.539,1.595,4.707,2.954,6.443
		c1.362,1.742,3.162,3.09,5.348,4.004c2.183,0.912,4.864,1.375,7.972,1.375c3.106,0,5.788-0.463,7.971-1.375
		c2.185-0.914,3.985-2.261,5.348-4.004c1.36-1.739,2.354-3.907,2.955-6.443c0.599-2.524,0.902-5.421,0.902-8.609V273.01
		l-0.146-0.018C389.522,272.859,388.353,272.792,387.111,272.792z"/>
	<path fill="#676767" d="M417.244,272.958c-0.664-0.043-1.308-0.066-1.927-0.066c-0.709,0-1.395,0.023-2.06,0.066
		c-0.665,0.044-1.285,0.111-1.86,0.2l-15.547,47.771c0.486,0.089,1.029,0.155,1.628,0.2c0.597,0.043,1.206,0.065,1.827,0.065
		c0.575,0,1.151-0.022,1.728-0.065c0.575-0.045,1.151-0.111,1.728-0.2l3.256-11.028h18.138l3.323,11.028
		c0.531,0.089,1.097,0.155,1.694,0.2c0.598,0.043,1.185,0.065,1.761,0.065c0.619,0,1.262-0.022,1.927-0.065
		c0.664-0.045,1.263-0.111,1.794-0.2l-15.481-47.771C418.55,273.068,417.909,273.002,417.244,272.958z M407.809,303.986
		l7.242-24.385l7.309,24.385H407.809z"/>
	<path fill="#676767" d="M467.238,314.92l-0.023-0.137h-18.71v-41.767l-0.139-0.023c-0.533-0.088-1.098-0.157-1.676-0.201
		c-1.221-0.092-2.427-0.086-3.515,0c-0.556,0.044-1.087,0.113-1.577,0.201l-0.138,0.025v48.078h25.759l0.021-0.144
		c0.134-0.934,0.2-1.948,0.2-3.013c0-0.434-0.011-0.914-0.032-1.469C467.385,315.932,467.328,315.408,467.238,314.92z"/>
	<path fill="#676767" d="M505.292,295.848c-1.176-0.089-2.31-0.089-3.48,0c-0.577,0.044-1.14,0.112-1.676,0.201l-0.139,0.023v18.687
		c-0.718,0.203-1.585,0.381-2.581,0.525c-1.047,0.153-2.291,0.23-3.697,0.23c-2.316,0-4.454-0.365-6.353-1.085
		c-1.895-0.718-3.561-1.845-4.954-3.347c-1.396-1.504-2.491-3.406-3.253-5.654c-0.766-2.252-1.154-4.973-1.154-8.086
		c0-3.027,0.378-5.749,1.122-8.089c0.742-2.338,1.794-4.331,3.125-5.924c1.326-1.588,2.961-2.813,4.854-3.642
		c1.899-0.829,4.034-1.249,6.347-1.249c2.145,0,3.954,0.156,5.38,0.461c1.432,0.309,2.779,0.666,4.004,1.059l0.146,0.047l0.06-0.142
		c0.394-0.962,0.741-1.893,1.033-2.769c0.29-0.872,0.482-1.835,0.572-2.861l0.011-0.125l-0.117-0.045
		c-1.513-0.577-3.222-1.038-5.079-1.37c-1.861-0.333-4.084-0.501-6.607-0.501c-3.327,0-6.4,0.597-9.135,1.774
		c-2.733,1.178-5.123,2.88-7.101,5.058c-1.977,2.178-3.52,4.846-4.585,7.931c-1.064,3.083-1.604,6.577-1.604,10.386
		c0,3.811,0.528,7.271,1.571,10.287c1.043,3.02,2.563,5.621,4.52,7.732c1.958,2.113,4.394,3.748,7.237,4.859
		c2.842,1.108,6.082,1.672,9.628,1.672c1.059,0,2.202-0.045,3.401-0.133c1.199-0.09,2.409-0.213,3.597-0.367
		c1.207-0.157,2.377-0.382,3.476-0.668c1.109-0.288,2.146-0.639,3.08-1.039l0.101-0.041v-23.571l-0.137-0.024
		C506.412,295.96,505.87,295.892,505.292,295.848z"/>
	<path fill="#676767" d="M537.312,300.547c1.07-0.535,2.186-1.223,3.312-2.041c1.134-0.823,2.162-1.806,3.055-2.921
		c0.892-1.114,1.638-2.402,2.217-3.829c0.582-1.432,0.876-3.041,0.876-4.78c0-2.894-0.555-5.325-1.65-7.225
		c-1.093-1.897-2.53-3.425-4.272-4.542c-1.738-1.113-3.747-1.903-5.971-2.348c-2.22-0.443-4.488-0.668-6.743-0.668
		c-1.004,0-1.945,0.022-2.8,0.067c-0.853,0.045-1.67,0.101-2.43,0.167c-0.759,0.065-1.554,0.143-2.363,0.233
		c-0.773,0.086-2.806,0.279-2.806,0.279v48.132l0.139,0.023c0.534,0.088,1.122,0.145,1.75,0.168
		c0.631,0.021,1.213,0.033,1.732,0.033c0.523,0,1.098-0.023,1.706-0.068c0.6-0.043,1.143-0.089,1.631-0.133l0.151-0.012v-42.594
		c0.733-0.079,1.407-0.141,2.005-0.183c0.645-0.043,1.346-0.066,2.082-0.066c3.134,0,5.657,0.77,7.502,2.288
		c1.834,1.511,2.763,3.86,2.763,6.981c0,1.688-0.371,3.145-1.104,4.331c-0.739,1.195-1.676,2.231-2.783,3.078
		c-1.112,0.85-2.34,1.547-3.648,2.07c-1.32,0.528-2.588,0.951-3.766,1.255l-0.657,0.165v0.447l15.311,22.168l0.043,0.062
		c0,0,2.486,0.209,3.682,0.209c1.505,0,4.348-0.23,4.348-0.23l-13.936-20.205L537.312,300.547z"/>
	<path fill="#676767" d="M576.1,273.007c0,0-1.378-0.17-2.042-0.215c-1.449-0.095-2.742-0.083-4.009,0
		c-0.667,0.044-1.975,0.216-1.975,0.216l-15.58,47.869l-0.06,0.182l0.188,0.033c0.49,0.09,1.044,0.158,1.646,0.202
		c1.17,0.086,2.361,0.092,3.579,0c0.576-0.044,1.162-0.112,1.74-0.2l0.104-0.018l3.251-11.011h17.891l3.316,11.011
		c0,0,1.212,0.174,1.812,0.218c0.605,0.045,1.202,0.067,1.771,0.067c0.612,0,1.265-0.022,1.938-0.067c0.666-0.044,2-0.232,2-0.232
		l-15.54-47.956L576.1,273.007z M564.834,303.82l7.021-23.638l7.085,23.638H564.834z"/>
	<path fill="#676767" d="M622.348,275.48c-1.671-1.203-3.636-2.062-5.843-2.552c-2.195-0.487-4.543-0.735-6.979-0.735
		c-0.913,0-1.887,0.022-2.897,0.066c-1.011,0.046-2.018,0.101-2.994,0.167c-0.985,0.065-1.948,0.144-2.861,0.232
		c-0.915,0.09-1.711,0.18-2.365,0.267l-0.144,0.02v48.125c0,0,1.249,0.168,1.854,0.191c0.609,0.021,1.181,0.033,1.701,0.033
		c1.196,0,3.554-0.219,3.554-0.219V303.84c0.683,0.078,1.328,0.126,1.922,0.146c0.629,0.021,1.359,0.033,2.231,0.033
		c2.263,0,4.511-0.26,6.682-0.77c2.182-0.511,4.158-1.402,5.874-2.65c1.718-1.25,3.12-2.935,4.17-5.01
		c1.048-2.075,1.579-4.705,1.579-7.816c0-2.978-0.498-5.495-1.479-7.481C625.369,278.305,624.021,276.686,622.348,275.48z
		 M619.51,292.85c-0.627,1.276-1.47,2.294-2.506,3.027c-1.038,0.737-2.236,1.253-3.56,1.535c-1.33,0.284-2.693,0.428-4.051,0.428
		c-1.015,0-1.792-0.022-2.312-0.066c-0.489-0.04-1.062-0.1-1.708-0.18v-19.039c1.197-0.121,2.593-0.183,4.153-0.183
		c1.571,0,3.057,0.155,4.415,0.461c1.343,0.304,2.506,0.83,3.456,1.564c0.947,0.733,1.702,1.718,2.242,2.926
		c0.542,1.214,0.816,2.734,0.816,4.517C620.456,289.886,620.138,291.572,619.51,292.85z"/>
	<path fill="#676767" d="M668.239,272.792c-1.217-0.089-2.341-0.089-3.513,0c-0.579,0.044-1.747,0.226-1.747,0.226v19.64h-20
		v-19.642c0,0-1.236-0.18-1.814-0.224c-1.175-0.089-2.31-0.089-3.48,0c-0.576,0.044-1.813,0.224-1.813,0.224v48.051
		c0,0,1.18,0.183,1.781,0.227c1.262,0.092,2.46,0.086,3.547,0c0.556-0.044,1.78-0.224,1.78-0.224V298.97h20v22.098
		c0,0,1.18,0.183,1.781,0.227c0.606,0.045,1.203,0.067,1.773,0.067c0.613,0,1.22-0.022,1.806-0.067
		c0.578-0.044,1.748-0.227,1.748-0.227v-48.051C670.088,273.016,668.84,272.836,668.239,272.792z"/>
	<path fill="#676767" d="M686.744,272.792c-1.176-0.089-2.31-0.089-3.48,0c-0.576,0.044-1.141,0.112-1.676,0.201l-0.139,0.023
		v48.051l0.137,0.024c0.49,0.09,1.044,0.158,1.645,0.202c0.607,0.045,1.204,0.067,1.773,0.067c0.613,0,1.21-0.022,1.774-0.067
		c0.556-0.044,1.107-0.112,1.641-0.2l0.14-0.023v-48.054l-0.14-0.023C687.886,272.905,687.322,272.836,686.744,272.792z"/>
	<path fill="#676767" d="M730.731,313.877l-0.071-0.139l-0.143,0.062c-1.313,0.568-2.733,1.013-4.22,1.318
		c-1.486,0.307-3.174,0.461-5.017,0.461c-2.362,0-4.521-0.375-6.418-1.118c-1.895-0.74-3.539-1.866-4.888-3.345
		c-1.351-1.482-2.411-3.383-3.153-5.654c-0.744-2.273-1.121-5.006-1.121-8.121c0-6.089,1.34-10.815,3.981-14.047
		c2.635-3.222,6.38-4.856,11.134-4.856c1.097,0,2.088,0.033,2.943,0.099c0.854,0.066,1.642,0.166,2.341,0.297
		c0.693,0.13,1.359,0.285,1.979,0.461c0.615,0.176,1.261,0.376,1.92,0.596l0.147,0.048l0.059-0.143
		c0.394-0.959,0.741-1.89,1.034-2.768c0.29-0.869,0.482-1.833,0.573-2.862l0.011-0.13l-0.123-0.042
		c-1.417-0.486-3.056-0.913-4.872-1.268c-1.821-0.355-4.022-0.535-6.543-0.535c-3.416,0-6.545,0.597-9.301,1.774
		c-2.757,1.178-5.125,2.881-7.036,5.06c-1.911,2.178-3.397,4.846-4.419,7.93c-1.019,3.08-1.536,6.573-1.536,10.384
		c0,3.769,0.518,7.207,1.537,10.219c1.021,3.021,2.508,5.622,4.419,7.732c1.911,2.112,4.29,3.759,7.07,4.893
		c2.775,1.133,5.938,1.707,9.398,1.707c2.256,0,4.39-0.18,6.342-0.534c1.95-0.354,3.885-0.939,5.75-1.738l0.117-0.05l-0.019-0.127
		C732.341,317.664,731.709,315.791,730.731,313.877z"/>
	<path fill="#676767" d="M767.98,301.938c-0.516-1.432-1.275-2.691-2.261-3.746c-0.983-1.048-2.182-1.976-3.562-2.755
		c-1.374-0.775-2.968-1.527-4.738-2.236l-3.723-1.462c-0.922-0.352-1.81-0.75-2.639-1.188c-0.826-0.434-1.553-0.929-2.159-1.472
		c-0.603-0.537-1.093-1.169-1.458-1.879c-0.363-0.704-0.547-1.516-0.547-2.416c0-2.193,0.738-3.859,2.193-4.95
		c1.469-1.103,3.604-1.662,6.345-1.662c1.97,0,3.757,0.178,5.312,0.528c1.559,0.352,2.948,0.752,4.131,1.19l0.15,0.055l0.062-0.147
		c0.754-1.819,1.249-3.689,1.473-5.559l0.016-0.131l-0.124-0.044c-1.458-0.53-3.166-0.98-5.075-1.336
		c-1.909-0.355-3.953-0.535-6.077-0.535c-4.978,0-8.903,1.164-11.667,3.46c-2.773,2.304-4.18,5.532-4.18,9.596
		c0,1.695,0.227,3.179,0.674,4.409c0.447,1.229,1.07,2.331,1.855,3.272c0.784,0.941,1.726,1.747,2.8,2.395
		c1.064,0.644,2.257,1.24,3.545,1.772l3.786,1.528c1.513,0.623,2.84,1.203,3.946,1.725c1.107,0.521,2.045,1.105,2.787,1.736
		c0.729,0.623,1.284,1.373,1.649,2.23c0.365,0.863,0.551,1.915,0.551,3.125c0,2.461-0.886,4.441-2.631,5.885
		c-1.755,1.451-4.457,2.188-8.033,2.188c-2.279,0-4.232-0.199-5.807-0.593c-1.58-0.396-3.116-0.862-4.568-1.39l-0.156-0.058
		l-0.057,0.156c-0.354,0.974-0.69,1.981-0.999,2.999c-0.312,1.025-0.516,2.043-0.604,3.023l-0.012,0.13l0.125,0.042
		c0.921,0.307,1.838,0.598,2.729,0.865c0.885,0.266,1.818,0.49,2.775,0.669c0.954,0.177,1.999,0.312,3.105,0.401
		c1.11,0.088,2.367,0.133,3.735,0.133c5.683,0,10.166-1.344,13.327-3.992c3.171-2.655,4.777-6.332,4.777-10.924
		C768.754,305.064,768.493,303.369,767.98,301.938z"/>
	<path fill="#676767" d="M125.291,258.843c1.779,3.078,3.441,6.218,5.009,9.402c1.576,3.179,3.046,6.408,4.414,9.678
		c0.684,1.635,1.341,3.28,1.975,4.935c0.638,1.653,1.259,3.312,1.852,4.981c0.131,0.37,0.25,0.745,0.379,1.115l-20.579,14.592
		c-0.715,0.506-1.28,1.235-1.577,2.131c-0.74,2.229,0.468,4.636,2.697,5.374c0,0,18.506,5.998,27.789,8.719
		c0.647,3.098,1.253,6.208,1.854,9.34c0.678,3.528,1.321,7.072,2.073,10.696c0.383,1.817,0.793,3.646,1.33,5.563
		c0.272,0.963,0.575,1.943,0.982,2.998c0.206,0.529,0.438,1.078,0.734,1.665c0.3,0.589,0.653,1.218,1.196,1.927
		c0.278,0.356,0.598,0.729,1.026,1.119c0.424,0.385,0.953,0.787,1.626,1.132c0.665,0.345,2.092,0.702,2.93,0.702
		c4.644,0,6.447-4.217,6.733-4.759c0.554-1.072,0.95-2.032,1.321-2.982c0.367-0.945,0.691-1.866,0.989-2.782
		c1.188-3.652,2.105-7.217,2.955-10.795c0.519-2.175,0.985-4.349,1.436-6.522c2.665,0.631,5.339,1.243,8.036,1.812
		c3.6,0.756,7.233,1.427,10.969,1.951c1.871,0.258,3.767,0.478,5.742,0.604c0.99,0.063,1.999,0.103,3.058,0.095
		c1.062-0.012,2.161-0.057,3.42-0.25c0.633-0.1,1.306-0.233,2.086-0.484c0.773-0.265,1.662-0.643,2.757-1.449
		c1.812-1.334,2.294-3.334,2.364-3.565c0.278-0.928,0.382-1.765,0.42-2.525c0.064-1.517-0.119-2.757-0.346-3.906
		c-0.234-1.144-0.533-2.187-0.871-3.181c-0.676-1.984-1.468-3.791-2.306-5.541c-0.835-1.749-1.75-3.416-2.68-5.055
		c-1.871-3.27-3.864-6.398-5.926-9.462c-2.064-3.062-4.199-6.054-6.396-8.997c-2.199-2.945-4.428-5.854-6.77-8.729
		c-0.585-0.721-1.178-1.44-1.791-2.161c-0.616-0.723-1.235-1.437-1.949-2.196c-0.182-0.192-1.214-1.186-1.429-1.358
		c-0.114-0.089-0.672-0.473-0.875-0.582c-0.251-0.108-2.457-1.17-4.878,0.378c-0.714,0.593-0.793,0.804-0.995,1.062
		c-0.131,0.194-0.397,0.693-0.432,0.769c-0.151,0.332-0.638,1.873-1.189,4.138c-0.884,3.632-1.5,7.176-2.232,10.727l-1.072,5.309
		l-1.102,5.292c-1.08,5.163-2.186,10.307-3.313,15.436c-1.037-0.258-2.074-0.513-3.11-0.773c-3.182-0.811-6.361-1.646-9.539-2.494
		c-1.837-6.61-3.955-13.166-6.394-19.603l11-8.204l17.658-13.17l8.829-6.584l4.414-3.293c1.471-1.099,2.945-2.193,4.444-3.251
		c0.021-0.015,0.055-0.04,0.075-0.055c1.446-1.083,1.74-3.133,0.657-4.579c-1.083-1.445-3.133-1.739-4.578-0.656
		c-1.469,1.101-2.965,2.165-4.463,3.226l-4.493,3.186l-8.984,6.371l-17.97,12.742l-9.587,6.798c-1.373-3.21-2.83-6.384-4.394-9.506
		c-1.646-3.281-3.393-6.511-5.244-9.677c-1.86-3.162-3.838-6.251-5.913-9.269c-4.153-6.03-8.763-11.739-13.79-17.004l-0.008-0.009
		c-0.447-0.465-1.182-0.528-1.705-0.126c-0.561,0.432-0.666,1.236-0.234,1.797C117.775,246.745,121.737,252.682,125.291,258.843z
		 M179.129,301.487l0.906-5.338c0,0,1.969-10.969,2.002-11.147c0.79,1.013,4.442,5.92,5.453,7.373
		c2.028,2.899,3.995,5.842,5.871,8.821c1.875,2.978,3.666,5.994,5.284,9.037c0.811,1.519,1.563,3.052,2.264,4.563
		c0.694,1.514,1.364,3.017,1.775,4.471c0.242,0.856,0.555,2.105,0.587,2.294c-0.353,0.026-0.734,0.042-1.129,0.046
		c-0.745,0.01-1.538-0.018-2.348-0.064c-1.624-0.099-3.313-0.284-5.015-0.514c-3.41-0.459-6.872-1.1-10.337-1.785
		c-2.707-0.542-5.416-1.138-8.124-1.756C177.306,312.15,178.222,306.815,179.129,301.487z M161.193,323.715
		c1.143,0.309,2.29,0.607,3.436,0.908c-0.509,2.209-1.027,4.411-1.549,6.601c-0.692,2.842-1.405,5.676-2.189,8.4
		c-0.167-0.637-0.334-1.276-0.497-1.925c-0.847-3.408-1.631-6.933-2.452-10.459c-0.364-1.58-0.743-3.163-1.127-4.746
		C158.275,322.899,159.728,323.319,161.193,323.715z M141.514,296.937c0.102,0.337,0.213,0.671,0.313,1.008
		c0.504,1.699,0.985,3.404,1.447,5.117c0.469,1.709,0.917,3.426,1.348,5.146c0.102,0.408,0.193,0.818,0.293,1.228
		c-0.689-0.191-1.379-0.374-2.068-0.566c-3.459-0.956-6.914-1.931-10.364-2.925l-2.192-0.638L141.514,296.937z"/>
	<path fill="#676767" d="M166.831,228.144c-14.948,0-29.217,4.638-41.264,13.414c-1.334,0.973-1.629,2.842-0.656,4.177
		c0.972,1.334,2.842,1.629,4.177,0.656c11.018-8.025,24.069-12.267,37.743-12.267c35.385,0,64.172,28.787,64.172,64.172
		c0,35.385-28.788,64.173-64.172,64.173c-35.384,0-64.172-28.788-64.172-64.173c0-15.256,5.445-30.04,15.333-41.629
		c1.072-1.256,0.922-3.143-0.333-4.215c-1.257-1.072-3.144-0.923-4.215,0.333c-10.811,12.67-16.764,28.833-16.764,45.51
		c0,38.682,31.47,70.151,70.152,70.151c38.682,0,70.152-31.47,70.152-70.151C236.983,259.614,205.513,228.144,166.831,228.144z"/>
</g>
</svg>
