<?xml version="1.0" encoding="utf-8"?>
<!-- Generator: Adobe Illustrator 15.0.0, SVG Export Plug-In . SVG Version: 6.00 Build 0)  -->
<!DOCTYPE svg PUBLIC "-//W3C//DTD SVG 1.1//EN" "http://www.w3.org/Graphics/SVG/1.1/DTD/svg11.dtd">
<svg version="1.1" id="Ebene_1" xmlns="http://www.w3.org/2000/svg" xmlns:xlink="http://www.w3.org/1999/xlink" x="0px" y="0px"
	 width="24px" height="24px" viewBox="0 0 24 24" enable-background="new 0 0 24 24" xml:space="preserve">
<g>
	<polygon fill="#DFDFDF" points="13.016,15.977 17,15.977 12,20.977 7,15.977 11.016,15.977 11.016,10.708 13.016,10.708 	"/>
	<polygon fill="#DFDFDF" points="18,10.999 16,10.999 16,4.999 8,4.999 8,10.999 6,10.999 6,2.999 6.984,2.999 8,2.999 16,2.999 
		17,2.999 18,2.999 	"/>
	<g opacity="0.1">
		<path d="M13.016,10.708v5.271H17l-5,5l-5-5h4.016v-5.271H13.016 M14.016,9.708h-1h-2h-1v1v4.271H7H4.586l1.707,1.707l5,5
			L12,22.393l0.707-0.707l5-5l1.707-1.707H17h-2.984v-4.271V9.708L14.016,9.708z"/>
	</g>
	<g opacity="0.1">
		<path d="M18,2.999v8h-2v-6H8v6H6v-8h0.984H8h8h1H18 M19,1.999h-1h-1h-1H8H6.984H6H5v1v8v1h1h2h1v-1v-5h6v5v1h1h2h1v-1v-8V1.999
			L19,1.999z"/>
	</g>
</g>
</svg>
