<?xml version="1.0" encoding="utf-8"?>
<!-- Generator: Adobe Illustrator 15.0.0, SVG Export Plug-In . SVG Version: 6.00 Build 0)  -->
<!DOCTYPE svg PUBLIC "-//W3C//DTD SVG 1.1//EN" "http://www.w3.org/Graphics/SVG/1.1/DTD/svg11.dtd">
<svg version="1.1" id="Ebene_1" xmlns="http://www.w3.org/2000/svg" xmlns:xlink="http://www.w3.org/1999/xlink" x="0px" y="0px"
	 width="24px" height="24px" viewBox="0 0 24 24" enable-background="new 0 0 24 24" xml:space="preserve">
<path fill="#E4E4E4" d="M16.527,11.564c-0.939,1.524-2.608,2.55-4.527,2.55c-1.916,0-3.585-1.025-4.523-2.55
	c-1.919,1.401-3.178,3.648-3.178,6.205c0,4.253,15.403,4.253,15.403,0C19.702,15.213,18.443,12.966,16.527,11.564z"/>
<path fill="#E4E4E4" d="M12,2.013c-2.486,0-4.511,2.024-4.511,4.511c0,0.862,0.257,1.659,0.676,2.345
	c0.795,1.295,2.211,2.166,3.835,2.166c1.628,0,3.041-0.871,3.835-2.166c0.423-0.686,0.676-1.482,0.676-2.345
	C16.511,4.037,14.489,2.013,12,2.013z"/>
<g opacity="0.1">
	<path d="M16.527,11.564c1.916,1.401,3.175,3.648,3.175,6.205c0,2.126-3.851,3.189-7.702,3.189s-7.702-1.063-7.702-3.189
		c0-2.557,1.259-4.804,3.178-6.205c0.938,1.524,2.607,2.55,4.523,2.55C13.919,14.114,15.588,13.089,16.527,11.564 M16.244,10.118
		l-0.568,0.922c-0.8,1.299-2.175,2.074-3.676,2.074c-1.5,0-2.873-0.775-3.672-2.074l-0.567-0.921l-0.874,0.638
		c-2.28,1.665-3.588,4.222-3.588,7.013c0,3.093,4.688,4.189,8.702,4.189s8.702-1.097,8.702-4.189c0-2.79-1.307-5.346-3.584-7.012
		L16.244,10.118L16.244,10.118z"/>
</g>
<g opacity="0.1">
	<path d="M12,2.013c2.489,0,4.511,2.024,4.511,4.511c0,0.862-0.253,1.659-0.676,2.345c-0.794,1.295-2.207,2.166-3.835,2.166
		c-1.624,0-3.04-0.871-3.835-2.166C7.746,8.183,7.489,7.386,7.489,6.523C7.489,4.037,9.514,2.013,12,2.013 M12,1.013
		c-3.039,0-5.511,2.472-5.511,5.511c0,0.995,0.284,1.986,0.822,2.866c1.017,1.657,2.77,2.645,4.688,2.645
		c1.92,0,3.673-0.988,4.688-2.644c0.538-0.872,0.823-1.864,0.823-2.867C17.511,3.485,15.039,1.013,12,1.013L12,1.013z"/>
</g>
</svg>
